{"glyphs":{":":{"x_min":0,"x_max":224,"ha":224,"o":"m 162 371 l 11 371 l 6 371 l 6 526 l 162 526 z m 162 -189 l 11 -189 l 6 -189 l 6 -24 l 162 -24 z"},"$":{"x_min":0,"x_max":1360,"ha":1360,"o":"m 1287 162 l 1126 1 l 6 1 l 6 157 l 1126 157 l 1126 478 l 171 478 l 6 644 l 6 795 l 162 795 l 162 644 l 1126 644 l 1287 478 z m 546 660 l 395 660 l 390 660 l 390 795 l 546 795 z m 826 664 l 675 664 l 670 664 l 670 799 l 826 799 z m 546 180 l 395 180 l 390 180 l 390 455 l 546 455 z m 826 184 l 675 184 l 670 184 l 670 459 l 826 459 z m 546 -200 l 395 -200 l 390 -200 l 390 -25 l 546 -25 z m 826 -196 l 675 -196 l 670 -196 l 670 -21 l 826 -21 z"},"?":{"x_min":0,"x_max":1360,"ha":1360,"o":"m 1287 323 l 1126 162 l 6 162 l 6 317 l 1126 317 l 1126 644 l 6 644 l 6 795 l 1131 795 l 1287 639 z m 162 -159 l 11 -159 l 6 -159 l 6 -4 l 162 -4 z"},"<":{"x_min":0,"x_max":910,"ha":910,"o":"m 520 640 l 278 398 l 520 156 l 590 230 l 418 398 l 590 570 z"},"'":{"x_min":0,"x_max":240,"ha":240,"o":"m 182 483 l 31 483 l 26 483 l 26 795 l 182 795 z"},"=":{"x_min":0,"x_max":922,"ha":922,"o":"m 684 530 l 230 530 l 230 432 l 684 432 z m 684 362 l 230 362 l 230 266 l 684 266 z"},"a":{"x_min":0,"x_max":1360,"ha":1360,"o":"m 1287 -159 l 1131 -159 l 1131 -4 l 162 -4 l 162 -159 l 11 -159 l 6 -159 l 6 478 l 167 639 l 1126 639 l 1287 478 z m 1126 162 l 1126 478 l 167 478 l 167 162 l 172 162 z"},"L":{"x_min":0,"x_max":1390,"ha":1390,"o":"m 1337 -19 l 16 -19 l 16 659 l 212 659 l 212 182 l 1337 182 z m 1297 21 l 1297 142 l 172 142 l 172 619 l 56 619 l 56 21 z"},"3":{"x_min":0,"x_max":1360,"ha":1360,"o":"m 1287 162 l 1126 1 l 11 1 l 6 1 l 6 157 l 1126 157 l 1126 483 l 6 483 l 6 639 l 1126 639 l 1126 795 l 1287 795 z"},";":{"x_min":0,"x_max":224,"ha":224,"o":"m 162 371 l 11 371 l 6 371 l 6 526 l 162 526 z m 162 -189 l 11 -189 l 6 -189 l 6 56 l 162 56 z"},"J":{"x_min":0,"x_max":1390,"ha":1390,"o":"m 1337 154 l 1164 -19 l 16 -19 l 16 177 l 1141 177 l 1141 659 l 1337 659 z m 1297 170 l 1297 619 l 1181 619 l 1181 137 l 56 137 l 56 21 l 1148 21 z"},"V":{"x_min":0,"x_max":1544,"ha":1544,"o":"m 1531 659 l 852 -19 l 670 -19 l -4 659 l 269 659 l 759 170 l 1249 659 z m 1435 619 l 1265 619 l 760 115 l 253 619 l 92 619 l 683 21 l 836 21 z"},"\"":{"x_min":0,"x_max":548,"ha":548,"o":"m 503 483 l 352 483 l 348 483 l 348 795 l 503 795 z m 182 483 l 31 483 l 26 483 l 26 795 l 182 795 z"},"7":{"x_min":0,"x_max":1360,"ha":1360,"o":"m 1287 1 l 1137 1 l 1131 1 l 1131 483 l 6 483 l 6 639 l 1126 639 l 1287 478 z"},"S":{"x_min":0,"x_max":1390,"ha":1390,"o":"m 1337 154 l 1164 -19 l 16 -19 l 16 177 l 1136 177 l 1136 458 l 193 458 l 16 636 l 16 795 l 212 795 l 212 664 l 1164 664 l 1337 486 z m 1297 170 l 1297 470 l 1148 624 l 172 624 l 172 755 l 56 755 l 56 652 l 209 498 l 1176 498 l 1176 137 l 56 137 l 56 21 l 1148 21 z"},"}":{"x_min":0,"x_max":451,"ha":451,"o":"m 400 319 l 400 239 q 350 238 318 218 q 286 199 276 166 q 266 132 265 50 q 264 -31 261 -57 q 255 -98 239 -122 q 223 -147 200 -162 q 176 -177 140 -185 q 115 -190 59 -190 l 22 -190 l 22 -114 l 42 -114 q 110 -114 132 -96 q 155 -77 155 -13 q 155 109 161 142 q 171 196 202 228 q 234 261 291 279 q 216 306 186 350 q 155 394 155 499 q 155 594 151 613 q 147 645 126 658 q 104 671 42 671 l 22 671 l 22 748 l 59 748 q 123 748 151 740 q 193 729 220 704 q 248 679 256 640 q 264 602 265 514 q 266 426 276 392 q 286 359 318 340 q 350 320 400 319 z"},"Z":{"x_min":0,"x_max":1390,"ha":1390,"o":"m 1337 -19 l 189 -19 l 16 154 l 16 486 l 189 659 l 1141 659 l 1141 795 l 1337 795 l 1337 463 l 217 463 l 217 182 l 1337 182 z m 1297 21 l 1297 142 l 177 142 l 177 503 l 1297 503 l 1297 755 l 1181 755 l 1181 619 l 205 619 l 56 470 l 56 170 l 205 21 z"},"x":{"x_min":0,"x_max":1360,"ha":1360,"o":"m 1287 483 l 975 483 l 970 483 l 970 639 l 1287 639 z m 1287 1 l 975 1 l 970 1 l 970 157 l 1287 157 z m 1287 253 l 11 253 l 6 253 l 6 408 l 1287 408 z m 323 483 l 11 483 l 6 483 l 6 639 l 323 639 z m 323 1 l 11 1 l 6 1 l 6 157 l 323 157 z"},")":{"x_min":0,"x_max":354,"ha":354,"o":"m 44 -76 l 184 -76 l 184 728 l 50 728 l 116 795 l 280 795 l 280 -143 l 108 -143 z"},"&":{"x_min":0,"x_max":532,"ha":532,"o":"m 321 447 l 321 607 l 183 607 l 183 447 l 27 447 l 27 315 l 183 315 l 183 155 l 321 155 l 321 315 l 477 315 l 477 447 z"},"_":{"x_min":0,"x_max":1212,"ha":1212,"o":"m 1212 -202 l 2 -202 l 2 -46 l 1212 -46 z"},"v":{"x_min":0,"x_max":1467,"ha":1467,"o":"m 1447 639 l 804 1 l 643 1 l 638 1 l 4 639 l 221 639 l 719 142 l 1217 639 z"},"O":{"x_min":0,"x_max":1390,"ha":1390,"o":"m 1337 154 l 1164 -19 l 189 -19 l 16 154 l 16 486 l 189 659 l 1164 659 l 1337 486 z m 1297 170 l 1297 470 l 1148 619 l 205 619 l 56 470 l 56 170 l 205 21 l 1148 21 z m 1176 142 l 177 142 l 177 498 l 1176 498 z m 1136 182 l 1136 458 l 217 458 l 217 182 z"},"(":{"x_min":0,"x_max":352,"ha":352,"o":"m 162 -76 l 303 -76 l 236 -145 l 66 -145 l 66 793 l 232 793 l 299 726 l 162 726 z"},"C":{"x_min":0,"x_max":1390,"ha":1390,"o":"m 1337 -19 l 189 -19 l 16 154 l 16 486 l 189 659 l 1337 659 l 1337 463 l 212 463 l 212 182 l 1337 182 z m 1297 21 l 1297 142 l 172 142 l 172 503 l 1297 503 l 1297 619 l 205 619 l 56 470 l 56 170 l 205 21 z"},"W":{"x_min":0,"x_max":1390,"ha":1390,"o":"m 1339 154 l 1166 -19 l 191 -19 l 18 154 l 18 659 l 214 659 l 214 177 l 581 177 l 581 659 l 781 659 l 781 177 l 1138 177 l 1138 659 l 1339 659 z m 1299 170 l 1299 619 l 1178 619 l 1178 137 l 741 137 l 741 619 l 621 619 l 621 137 l 174 137 l 174 619 l 58 619 l 58 170 l 204 21 l 1150 21 z"},"A":{"x_min":0,"x_max":1390,"ha":1390,"o":"m 1337 -179 l 1141 -179 l 1141 -24 l 212 -24 l 212 -179 l 16 -179 l 16 486 l 189 659 l 1164 659 l 1337 486 z m 1297 -139 l 1297 470 l 1148 619 l 205 619 l 56 470 l 56 -139 l 172 -139 l 172 16 l 1181 16 l 1181 -139 z m 1176 142 l 177 142 l 177 498 l 1176 498 z m 1136 182 l 1136 458 l 217 458 l 217 182 z"},"f":{"x_min":0,"x_max":1360,"ha":1360,"o":"m 1287 1 l 1066 1 l 167 1 l 167 -159 l 11 -159 l 6 -159 l 6 478 l 167 639 l 1287 639 l 1287 483 l 167 483 l 167 157 l 1287 157 z"},"Q":{"x_min":0,"x_max":1390,"ha":1390,"o":"m 1337 -179 l 1141 -179 l 1141 -19 l 189 -19 l 16 154 l 16 486 l 189 659 l 1164 659 l 1337 486 z m 1297 -139 l 1297 470 l 1148 619 l 205 619 l 56 470 l 56 170 l 205 21 l 1181 21 l 1181 -139 z m 1176 142 l 177 142 l 177 498 l 1176 498 z m 1136 182 l 1136 458 l 217 458 l 217 182 z"},"w":{"x_min":0,"x_max":1360,"ha":1360,"o":"m 1289 162 l 1128 1 l 174 1 l 169 1 l 8 162 l 8 639 l 164 639 l 164 157 l 571 157 l 571 639 l 731 639 l 731 157 l 1128 157 l 1128 639 l 1289 639 z"},"-":{"x_min":0,"x_max":1360,"ha":1360,"o":"m 1287 483 l 77 483 l 77 639 l 1287 639 z"},"E":{"x_min":0,"x_max":1390,"ha":1390,"o":"m 1337 -19 l 189 -19 l 16 154 l 16 795 l 1337 795 l 1337 594 l 212 594 l 212 504 l 1337 504 l 1337 303 l 212 303 l 212 177 l 1337 177 z m 1297 21 l 1297 137 l 172 137 l 172 343 l 1297 343 l 1297 464 l 172 464 l 172 634 l 1297 634 l 1297 755 l 56 755 l 56 170 l 202 21 z"},"s":{"x_min":0,"x_max":1360,"ha":1360,"o":"m 1287 162 l 1126 1 l 6 1 l 6 157 l 1126 157 l 1126 478 l 171 478 l 6 644 l 6 795 l 162 795 l 162 644 l 1126 644 l 1287 478 z"},">":{"x_min":0,"x_max":926,"ha":926,"o":"m 406 160 l 648 402 l 406 644 l 336 570 l 504 402 l 336 230 z"},"l":{"x_min":0,"x_max":1360,"ha":1360,"o":"m 1287 1 l 6 1 l 6 639 l 162 639 l 162 162 l 1287 162 z"},"8":{"x_min":0,"x_max":1360,"ha":1360,"o":"m 1287 1 l 1131 -159 l 172 -159 l 167 -159 l 6 1 l 6 639 l 162 795 l 1131 795 l 1287 639 z m 1126 394 l 1126 631 l 167 631 l 167 394 l 172 394 z m 1126 1 l 1126 238 l 167 238 l 167 1 l 172 1 z"},"\\":{"x_min":0,"x_max":516,"ha":516,"o":"m 482 1 l 331 1 l 326 1 l 6 639 l 162 639 z"},"e":{"x_min":0,"x_max":1360,"ha":1360,"o":"m 1287 1 l 172 1 l 167 1 l 6 162 l 6 795 l 1287 795 l 1287 634 l 162 634 l 162 494 l 1287 494 l 1287 333 l 162 333 l 162 157 l 1287 157 z"},"b":{"x_min":0,"x_max":1360,"ha":1360,"o":"m 1287 162 l 1126 1 l 172 1 l 167 1 l 6 162 l 6 795 l 162 795 l 162 639 l 1126 639 l 1287 478 z m 1126 162 l 1126 478 l 167 478 l 167 162 z"},"%":{"x_min":0,"x_max":584,"ha":584,"o":"m 536 639 l 216 1 l 211 1 l 60 1 l 380 639 z m 178 484 l 27 484 l 22 484 l 22 639 l 178 639 z m 522 -1 l 371 -1 l 366 -1 l 366 154 l 522 154 z"},"m":{"x_min":0,"x_max":1360,"ha":1360,"o":"m 1287 1 l 1131 1 l 1131 483 l 725 483 l 725 1 l 563 1 l 563 483 l 162 483 l 162 1 l 11 1 l 6 1 l 6 478 l 167 639 l 1126 639 l 1287 478 z"},"#":{"x_min":0,"x_max":520,"ha":520,"o":"m 131 416 l 131 342 l 21 342 l 21 264 l 131 264 l 131 156 l 213 156 l 213 264 l 287 264 l 287 156 l 369 156 l 369 264 l 475 264 l 475 346 l 369 346 l 369 416 l 475 416 l 475 498 l 369 498 l 369 608 l 287 608 l 287 502 l 213 502 l 213 608 l 131 608 l 131 498 l 25 502 l 25 416 z m 213 342 l 213 416 l 287 416 l 287 342 z"},",":{"x_min":0,"x_max":224,"ha":224,"o":"m 162 -189 l 11 -189 l 6 -189 l 6 56 l 162 56 z"},"n":{"x_min":0,"x_max":1360,"ha":1360,"o":"m 1287 1 l 1131 1 l 1131 478 l 162 478 l 162 1 l 13 1 l 6 1 l 6 478 q 11 478 89 558 q 115 584 167 639 l 1126 639 l 1287 478 z"},"h":{"x_min":0,"x_max":1360,"ha":1360,"o":"m 1287 1 l 1131 1 l 1131 323 l 162 323 l 162 1 l 11 1 l 6 1 l 6 639 l 162 639 l 162 483 l 1131 483 l 1131 639 l 1287 639 z"},"z":{"x_min":0,"x_max":1360,"ha":1360,"o":"m 1287 1 l 167 1 l 6 162 l 6 478 l 167 639 l 1131 639 l 1131 795 l 1287 795 l 1287 483 l 167 483 l 167 162 l 1287 162 z"},"B":{"x_min":0,"x_max":1390,"ha":1390,"o":"m 1337 154 l 1164 -19 l 202 -19 l 189 -19 l 16 154 l 16 795 l 212 795 l 212 659 l 1164 659 l 1337 486 z m 1297 170 l 1297 470 l 1148 619 l 172 619 l 172 755 l 56 755 l 56 170 l 205 21 l 1148 21 z m 1176 142 l 177 142 l 177 498 l 1176 498 z m 1136 182 l 1136 458 l 217 458 l 217 182 z"},"K":{"x_min":0,"x_max":1390,"ha":1390,"o":"m 1337 -19 l 1141 -19 l 1141 137 l 212 137 l 212 -19 l 16 -19 l 16 659 l 212 659 l 212 343 l 513 343 l 829 659 l 1337 659 l 1337 463 l 888 463 l 764 337 l 1164 337 l 1337 165 z m 1297 21 l 1297 149 l 1148 297 l 668 297 l 872 503 l 1297 503 l 1297 619 l 845 619 l 529 303 l 172 303 l 172 619 l 56 619 l 56 21 l 172 21 l 172 177 l 1181 177 l 1181 21 z"},"R":{"x_min":0,"x_max":1390,"ha":1390,"o":"m 1337 463 l 217 463 l 217 -19 l 16 -19 l 16 486 l 189 659 l 1337 659 z m 1297 503 l 1297 619 l 205 619 l 56 470 l 56 21 l 177 21 l 177 503 z"},"T":{"x_min":0,"x_max":1390,"ha":1390,"o":"m 1337 463 l 212 463 l 212 -19 l 16 -19 l 16 795 l 212 795 l 212 659 l 1337 659 z m 1297 503 l 1297 619 l 172 619 l 172 755 l 56 755 l 56 21 l 172 21 l 172 503 z"},"P":{"x_min":0,"x_max":1390,"ha":1390,"o":"m 1337 154 l 1164 -19 l 217 -19 l 217 -179 l 16 -179 l 16 486 l 189 659 l 1164 659 l 1337 486 z m 1297 170 l 1297 470 l 1148 619 l 205 619 l 56 470 l 56 -139 l 177 -139 l 177 21 l 1148 21 z m 1176 142 l 177 142 l 177 498 l 1176 498 z m 1136 182 l 1136 458 l 217 458 l 217 182 z"},"|":{"x_min":0,"x_max":1360,"ha":1360,"o":"m 162 -189 l 11 -189 l 6 -189 l 6 799 l 162 799 z"},"t":{"x_min":0,"x_max":1360,"ha":1360,"o":"m 1287 483 l 162 483 l 162 1 l 11 1 l 6 1 l 6 795 l 162 795 l 162 639 l 1287 639 z"},"M":{"x_min":0,"x_max":1390,"ha":1390,"o":"m 1337 -19 l 1141 -19 l 1141 463 l 775 463 l 775 -19 l 573 -19 l 573 463 l 212 463 l 212 -19 l 16 -19 l 16 486 l 189 659 l 1164 659 l 1337 486 z m 1297 21 l 1297 470 l 1148 619 l 205 619 l 56 470 l 56 21 l 172 21 l 172 503 l 613 503 l 613 21 l 735 21 l 735 503 l 1181 503 l 1181 21 z"},"g":{"x_min":0,"x_max":1360,"ha":1360,"o":"m 1287 162 l 1126 1 l 1056 1 l 167 1 l 6 162 l 6 472 l 167 639 l 1287 639 l 1287 483 l 167 483 l 167 157 l 1126 157 l 1126 317 l 1287 317 z"},"j":{"x_min":0,"x_max":1360,"ha":1360,"o":"m 1287 162 l 1126 1 l 11 1 l 6 1 l 6 157 l 1131 157 l 1131 639 l 1287 639 z"},"i":{"x_min":0,"x_max":232,"ha":232,"o":"m 162 1 l 11 1 l 6 1 l 6 639 l 162 639 z"},"y":{"x_min":0,"x_max":1360,"ha":1360,"o":"m 1287 -159 l 1137 -159 l 1131 -159 l 1131 1 l 167 1 l 6 162 l 6 639 l 162 639 l 162 162 l 1131 162 l 1131 639 l 1287 639 z"},"@":{"x_min":0,"x_max":1430,"ha":1430,"o":"m 673 -1 l 595 -1 l 595 77 l 111 77 l 111 -1 l 35 -1 l 33 318 l 113 399 l 593 399 l 673 318 z m 593 160 l 593 318 l 113 318 l 113 160 z m 1368 321 l 806 321 l 806 80 l 730 80 l 728 477 l 806 477 l 806 399 l 1368 399 z"},".":{"x_min":0,"x_max":224,"ha":224,"o":"m 162 -159 l 11 -159 l 6 -159 l 6 -4 l 162 -4 z"},"p":{"x_min":0,"x_max":1360,"ha":1360,"o":"m 1287 162 l 1126 1 l 167 1 l 167 -159 l 11 -159 l 6 -159 l 6 478 l 167 639 l 1126 639 l 1287 478 z m 1126 162 l 1126 478 l 167 478 l 167 162 l 172 162 z"},"X":{"x_min":0,"x_max":1390,"ha":1390,"o":"m 1337 463 l 980 463 l 980 659 l 1337 659 z m 1337 -19 l 980 -19 l 980 177 l 1337 177 z m 1337 233 l 16 233 l 16 428 l 1337 428 z m 373 463 l 16 463 l 16 659 l 373 659 z m 373 -19 l 16 -19 l 16 177 l 373 177 z m 1297 503 l 1297 619 l 1020 619 l 1020 503 z m 1297 21 l 1297 137 l 1020 137 l 1020 21 z m 1297 273 l 1297 388 l 56 388 l 56 273 z m 333 503 l 333 619 l 56 619 l 56 503 z m 333 21 l 333 137 l 56 137 l 56 21 z"},"*":{"x_min":0,"x_max":496,"ha":496,"o":"m 243 475 l 133 587 l 39 495 l 149 381 l 39 271 l 133 173 l 243 287 l 355 173 l 449 271 l 335 381 l 449 495 l 355 587 z m 313 447 l 313 607 l 175 607 l 175 447 l 19 447 l 19 315 l 175 315 l 175 155 l 313 155 l 313 315 l 469 315 l 469 447 z"},"Y":{"x_min":0,"x_max":1390,"ha":1390,"o":"m 1337 -179 l 1141 -179 l 1141 -19 l 189 -19 l 16 154 l 16 659 l 212 659 l 212 182 l 1141 182 l 1141 659 l 1337 659 z m 1297 -139 l 1297 619 l 1181 619 l 1181 142 l 172 142 l 172 619 l 56 619 l 56 170 l 205 21 l 1181 21 l 1181 -139 z"},"c":{"x_min":0,"x_max":1360,"ha":1360,"o":"m 1287 1 l 172 1 l 167 1 l 6 162 l 6 478 l 167 639 l 1287 639 l 1287 483 l 162 483 l 162 162 l 1287 162 z"},"!":{"x_min":0,"x_max":224,"ha":224,"o":"m 162 162 l 11 162 l 6 162 l 6 639 l 162 639 z m 162 -159 l 11 -159 l 6 -159 l 6 -4 l 162 -4 z"},"/":{"x_min":0,"x_max":516,"ha":516,"o":"m 516 639 l 196 1 l 191 1 l 40 1 l 360 639 z"},"[":{"x_min":0,"x_max":352,"ha":352,"o":"m 162 -76 l 303 -76 l 236 -145 l 66 -145 l 66 793 l 232 793 l 299 726 l 162 726 z"},"6":{"x_min":0,"x_max":1360,"ha":1360,"o":"m 1287 162 l 1126 1 l 172 1 l 167 1 l 6 162 l 6 795 l 162 795 l 162 639 l 1126 639 l 1287 478 z m 1126 162 l 1126 478 l 167 478 l 167 162 z"},"r":{"x_min":0,"x_max":1360,"ha":1360,"o":"m 1287 483 l 167 483 l 167 1 l 11 1 l 6 1 l 6 478 l 167 639 l 1287 639 z"},"2":{"x_min":0,"x_max":1360,"ha":1360,"o":"m 1287 1 l 167 1 l 6 162 l 6 478 l 167 639 l 1131 639 l 1131 795 l 1287 795 l 1287 483 l 167 483 l 167 157 l 1287 157 z"},"{":{"x_min":0,"x_max":449,"ha":449,"o":"m 27 349 q 77 350 108 369 q 139 388 150 422 q 160 456 160 538 q 161 619 164 645 q 170 686 186 711 q 202 736 225 750 q 248 765 284 773 q 308 778 364 778 l 400 778 l 400 701 l 380 701 q 313 701 291 683 q 269 665 269 601 q 269 473 262 440 q 250 387 222 359 q 194 331 135 309 q 205 286 237 240 q 269 194 269 89 q 269 -6 272 -24 q 277 -57 298 -70 q 319 -84 380 -84 l 400 -84 l 400 -160 l 364 -160 q 301 -160 272 -153 q 231 -141 204 -116 q 177 -91 169 -52 q 161 -14 160 74 q 160 162 150 196 q 139 229 108 248 q 77 268 27 269 z"},"9":{"x_min":0,"x_max":1360,"ha":1360,"o":"m 1287 -159 l 1137 -159 l 1131 -159 l 1131 1 l 167 1 l 6 162 l 6 478 l 167 639 l 1126 639 l 1287 478 z m 1126 191 l 1126 468 l 167 468 l 167 191 l 172 191 z"}," ":{"x_min":0,"x_max":564,"ha":564,"o":""},"I":{"x_min":0,"x_max":272,"ha":272,"o":"m 212 -19 l 16 -19 l 16 659 l 212 659 z m 172 21 l 172 619 l 56 619 l 56 21 z"},"H":{"x_min":0,"x_max":1390,"ha":1390,"o":"m 1337 -19 l 1141 -19 l 1141 303 l 212 303 l 212 -19 l 16 -19 l 16 659 l 212 659 l 212 503 l 1141 503 l 1141 659 l 1337 659 z m 1297 21 l 1297 619 l 1181 619 l 1181 463 l 172 463 l 172 619 l 56 619 l 56 21 l 172 21 l 172 343 l 1181 343 l 1181 21 z"},"4":{"x_min":0,"x_max":1360,"ha":1360,"o":"m 1287 -159 l 1137 -159 l 1131 -159 l 1131 1 l 167 1 l 6 162 l 6 639 l 162 639 l 162 162 l 1131 162 l 1131 639 l 1287 639 z"},"~":{"x_min":0,"x_max":583,"ha":583,"o":"m 42 272 l 42 413 q 94 495 178 495 q 208 495 240 483 q 272 471 332 435 q 365 416 382 410 q 399 403 416 403 q 448 403 482 430 q 516 457 542 497 l 542 352 q 511 311 479 292 q 447 274 407 274 q 377 274 350 284 q 324 293 266 330 q 208 366 170 366 q 139 366 111 347 q 83 328 42 272 z"},"D":{"x_min":0,"x_max":1390,"ha":1390,"o":"m 1337 -19 l 189 -19 l 16 154 l 16 486 l 189 659 l 1141 659 l 1141 795 l 1337 795 l 1337 463 l 217 463 l 217 177 l 1337 177 z m 1297 21 l 1297 137 l 177 137 l 177 503 l 1297 503 l 1297 755 l 1181 755 l 1181 619 l 205 619 l 56 470 l 56 170 l 205 21 z"},"^":{"x_min":0,"x_max":558,"ha":558,"o":"m 180 795 l 334 795 l 180 483 l 176 483 l 26 483 z m 514 483 l 363 483 l 358 483 l 203 795 l 359 795 z"},"0":{"x_min":0,"x_max":1360,"ha":1360,"o":"m 1287 162 l 1126 1 l 167 1 l 6 162 l 6 478 l 167 639 l 1126 639 l 1287 478 z m 1126 162 l 1126 478 l 167 478 l 167 162 l 172 162 z"},"F":{"x_min":0,"x_max":1390,"ha":1390,"o":"m 1337 -19 l 217 -19 l 217 -179 l 16 -179 l 16 486 l 189 659 l 1337 659 l 1337 463 l 217 463 l 217 177 l 1337 177 z m 1297 21 l 1297 137 l 177 137 l 177 503 l 1297 503 l 1297 619 l 205 619 l 56 470 l 56 -139 l 177 -139 l 177 21 z"},"`":{"x_min":0,"x_max":385,"ha":385,"o":"m 337 483 l 186 483 l 181 483 l 26 795 l 182 795 z"},"k":{"x_min":0,"x_max":1360,"ha":1360,"o":"m 1287 1 l 1131 1 l 1131 157 l 162 157 l 162 1 l 11 1 l 6 1 l 6 639 l 162 639 l 162 323 l 491 323 l 807 639 l 1287 639 l 1287 483 l 850 483 l 686 317 l 1126 317 l 1287 157 z"},"u":{"x_min":0,"x_max":1360,"ha":1360,"o":"m 1287 162 l 1126 1 l 172 1 l 167 1 l 6 162 l 6 639 l 162 639 l 162 162 l 1133 162 l 1133 639 l 1287 639 z"},"]":{"x_min":0,"x_max":354,"ha":354,"o":"m 44 -76 l 184 -76 l 184 728 l 50 728 l 116 795 l 280 795 l 280 -143 l 108 -143 z"},"U":{"x_min":0,"x_max":1390,"ha":1390,"o":"m 1337 154 l 1164 -19 l 189 -19 l 16 154 l 16 659 l 212 659 l 212 182 l 1143 182 l 1143 659 l 1337 659 z m 1297 170 l 1297 619 l 1183 619 l 1183 142 l 172 142 l 172 619 l 56 619 l 56 170 l 202 21 l 1148 21 z"},"o":{"x_min":0,"x_max":1360,"ha":1360,"o":"m 1287 162 l 1126 1 l 167 1 l 6 162 l 6 478 l 167 639 l 1126 639 l 1287 478 z m 1126 162 l 1126 478 l 167 478 l 167 162 z"},"N":{"x_min":0,"x_max":1390,"ha":1390,"o":"m 1337 -19 l 1141 -19 l 1141 458 l 212 458 l 212 -19 l 16 -19 l 16 498 l 188 659 l 1164 659 l 1337 486 z m 1297 21 l 1297 470 l 1148 619 l 205 619 l 56 475 l 56 21 l 172 21 l 172 498 l 1181 498 l 1181 21 z"},"+":{"x_min":0,"x_max":532,"ha":532,"o":"m 321 447 l 321 607 l 183 607 l 183 447 l 27 447 l 27 315 l 183 315 l 183 155 l 321 155 l 321 315 l 477 315 l 477 447 z"},"G":{"x_min":0,"x_max":1390,"ha":1390,"o":"m 1337 154 l 1164 -19 l 189 -19 l 16 154 l 16 480 l 189 659 l 1337 659 l 1337 463 l 217 463 l 217 177 l 1136 177 l 1136 337 l 1337 337 z m 1297 170 l 1297 297 l 1176 297 l 1176 137 l 177 137 l 177 503 l 1297 503 l 1297 619 l 205 619 l 56 464 l 56 170 l 205 21 l 1148 21 z"},"q":{"x_min":0,"x_max":1360,"ha":1360,"o":"m 1287 -159 l 1137 -159 l 1131 -159 l 1131 1 l 167 1 l 6 162 l 6 478 l 167 639 l 1126 639 l 1287 478 z m 1126 162 l 1126 478 l 167 478 l 167 162 l 172 162 z"},"d":{"x_min":0,"x_max":1360,"ha":1360,"o":"m 1287 1 l 167 1 l 6 162 l 6 478 l 167 639 l 1131 639 l 1131 795 l 1287 795 l 1287 483 l 167 483 l 167 157 l 1287 157 z"},"1":{"x_min":0,"x_max":236,"ha":236,"o":"m 162 1 l 11 1 l 6 1 l 6 639 l 162 639 z"},"5":{"x_min":0,"x_max":1360,"ha":1360,"o":"m 1287 162 l 1126 1 l 6 1 l 6 157 l 1126 157 l 1126 478 l 171 478 l 6 644 l 6 795 l 162 795 l 162 644 l 1126 644 l 1287 478 z"}}}
